<svg width="20" height="20" viewBox="0 0 20 20" fill="none" xmlns="http://www.w3.org/2000/svg">
<path d="M10.0008 7.7998C9.71177 7.7998 9.42556 7.85674 9.15852 7.96735C8.89148 8.07796 8.64884 8.24008 8.44446 8.44446C8.24008 8.64884 8.07796 8.89148 7.96735 9.15852C7.85674 9.42556 7.7998 9.71177 7.7998 10.0008C7.7998 10.2898 7.85674 10.5761 7.96735 10.8431C8.07796 11.1101 8.24008 11.3528 8.44446 11.5571C8.64884 11.7615 8.89148 11.9237 9.15852 12.0343C9.42556 12.1449 9.71177 12.2018 10.0008 12.2018C10.5845 12.2017 11.1443 11.9697 11.557 11.5568C11.9697 11.1439 12.2014 10.584 12.2013 10.0003C12.2012 9.41656 11.9692 8.85678 11.5563 8.44411C11.1434 8.03144 10.5835 7.79967 9.9998 7.7998H10.0008ZM3.0008 7.7998C2.71177 7.7998 2.42556 7.85674 2.15852 7.96735C1.89148 8.07796 1.64884 8.24008 1.44446 8.44446C1.24008 8.64884 1.07796 8.89148 0.967346 9.15852C0.856735 9.42556 0.799805 9.71177 0.799805 10.0008C0.799805 10.2898 0.856735 10.5761 0.967346 10.8431C1.07796 11.1101 1.24008 11.3528 1.44446 11.5571C1.64884 11.7615 1.89148 11.9237 2.15852 12.0343C2.42556 12.1449 2.71177 12.2018 3.0008 12.2018C3.58455 12.2017 4.14433 11.9697 4.557 11.5568C4.96967 11.1439 5.20144 10.584 5.2013 10.0003C5.20117 9.41656 4.96915 8.85678 4.55629 8.44411C4.14343 8.03144 3.58355 7.79967 2.9998 7.7998H3.0008ZM17.0008 7.7998C16.7118 7.7998 16.4256 7.85674 16.1585 7.96735C15.8915 8.07796 15.6488 8.24008 15.4445 8.44446C15.2401 8.64884 15.078 8.89148 14.9673 9.15852C14.8567 9.42556 14.7998 9.71177 14.7998 10.0008C14.7998 10.2898 14.8567 10.5761 14.9673 10.8431C15.078 11.1101 15.2401 11.3528 15.4445 11.5571C15.6488 11.7615 15.8915 11.9237 16.1585 12.0343C16.4256 12.1449 16.7118 12.2018 17.0008 12.2018C17.5845 12.2017 18.1443 11.9697 18.557 11.5568C18.9697 11.1439 19.2014 10.584 19.2013 10.0003C19.2012 9.41656 18.9692 8.85678 18.5563 8.44411C18.1434 8.03144 17.5835 7.79967 16.9998 7.7998H17.0008Z" fill="#344FA1"/>
</svg>
