<svg width="22" height="22" viewBox="0 0 22 22" fill="none" xmlns="http://www.w3.org/2000/svg">
<path d="M11.9168 20.1669H8.25016C8.00705 20.1669 7.77389 20.0703 7.60198 19.8984C7.43007 19.7265 7.3335 19.4933 7.3335 19.2502V13.5669H5.50016C5.25705 13.5669 5.02389 13.4703 4.85198 13.2984C4.68007 13.1265 4.5835 12.8933 4.5835 12.6502V9.3502C4.5835 9.10709 4.68007 8.87393 4.85198 8.70202C5.02389 8.53011 5.25705 8.43354 5.50016 8.43354H7.3335V6.8752C7.39775 5.47853 8.0124 4.16411 9.04306 3.21934C10.0737 2.27458 11.4365 1.77633 12.8335 1.83354H15.5835C15.8266 1.83354 16.0598 1.93011 16.2317 2.10202C16.4036 2.27393 16.5002 2.50709 16.5002 2.7502V6.0502C16.5002 6.29332 16.4036 6.52648 16.2317 6.69838C16.0598 6.87029 15.8266 6.96687 15.5835 6.96687H12.8335V8.43354H15.5835C15.725 8.43246 15.8649 8.46418 15.9921 8.52621C16.1194 8.58823 16.2305 8.67887 16.3168 8.79104C16.4022 8.90488 16.4599 9.03704 16.4854 9.17706C16.5108 9.31707 16.5033 9.46109 16.4635 9.5977L15.5468 12.8977C15.4914 13.096 15.3708 13.2698 15.2045 13.3912C15.0382 13.5126 14.8359 13.5745 14.6302 13.5669H12.8335V19.2502C12.8335 19.4933 12.7369 19.7265 12.565 19.8984C12.3931 20.0703 12.1599 20.1669 11.9168 20.1669ZM9.16683 18.3335H11.0002V12.6502C11.0002 12.4071 11.0967 12.1739 11.2686 12.002C11.4406 11.8301 11.6737 11.7335 11.9168 11.7335H13.9702L14.3735 10.2669H11.9168C11.6737 10.2669 11.4406 10.1703 11.2686 9.99838C11.0967 9.82647 11.0002 9.59332 11.0002 9.3502V6.8752C11.0237 6.40503 11.2272 5.96194 11.5685 5.6377C11.9098 5.31347 12.3627 5.13295 12.8335 5.13354H14.6668V3.66687H12.8335C11.9231 3.6114 11.0275 3.91715 10.3411 4.51778C9.65463 5.11841 9.23271 5.96547 9.16683 6.8752V9.3502C9.16683 9.59332 9.07025 9.82647 8.89834 9.99838C8.72644 10.1703 8.49328 10.2669 8.25016 10.2669H6.41683V11.7335H8.25016C8.49328 11.7335 8.72644 11.8301 8.89834 12.002C9.07025 12.1739 9.16683 12.4071 9.16683 12.6502V18.3335Z" fill="#344FA1"/>
</svg>
