<svg width="21" height="21" viewBox="0 0 21 21" fill="none" xmlns="http://www.w3.org/2000/svg">
<path d="M7.44615 17.5003H7.37615C5.96596 17.488 4.57617 17.1622 3.3074 16.5466C3.07401 16.4369 2.88185 16.2555 2.75904 16.0288C2.63623 15.802 2.58922 15.5419 2.6249 15.2866C2.6637 15.0295 2.78274 14.7912 2.96501 14.6058C3.14729 14.4204 3.3835 14.2973 3.6399 14.2541C4.42618 14.1492 5.1826 13.8841 5.8624 13.4753C4.68216 12.5526 3.77355 11.3277 3.23286 9.93053C2.69217 8.53336 2.53954 7.01594 2.79115 5.53907C2.82526 5.30514 2.92587 5.08594 3.08099 4.90755C3.23611 4.72916 3.43922 4.59909 3.66615 4.53282C3.88692 4.46349 4.1232 4.46052 4.34564 4.5243C4.56809 4.58808 4.7669 4.71579 4.9174 4.89157C5.4284 5.56163 6.07055 6.12056 6.80469 6.53427C7.53882 6.94797 8.34955 7.20777 9.1874 7.29782C9.22742 6.26694 9.67043 5.29295 10.4211 4.58532C10.796 4.22638 11.2385 3.94562 11.723 3.75942C12.2074 3.57322 12.7241 3.48529 13.2429 3.50076C13.7616 3.51624 14.2721 3.6348 14.7446 3.84954C15.2171 4.06429 15.6421 4.37092 15.9949 4.75157C16.0868 4.83283 16.201 4.88462 16.3227 4.90022C16.4444 4.91582 16.568 4.89452 16.6774 4.83907C16.886 4.74068 17.1183 4.70364 17.3472 4.73227C17.5761 4.76091 17.7921 4.85405 17.9701 5.00081C18.148 5.14758 18.2806 5.34192 18.3523 5.56117C18.4239 5.78042 18.4318 6.01553 18.3749 6.23907C18.1731 7.07042 17.7907 7.84714 17.2549 8.51407C17.1368 11.0032 16.0394 13.3448 14.202 15.0281C12.3645 16.7115 9.9361 17.6001 7.44615 17.5003ZM7.44615 15.7503H7.51615C8.53348 15.7853 9.54764 15.618 10.4998 15.2581C11.452 14.8982 12.3233 14.3529 13.0632 13.6537C13.803 12.9546 14.3967 12.1155 14.8098 11.1852C15.223 10.2548 15.4473 9.25176 15.4699 8.23407C15.4843 7.95517 15.5994 7.69095 15.7936 7.49032C16.0071 7.22016 16.1891 6.92661 16.3361 6.61532C16.0209 6.61592 15.7091 6.54999 15.4211 6.42182C15.1332 6.29366 14.8755 6.10616 14.6649 5.87157C14.4624 5.67081 14.2219 5.51245 13.9575 5.40578C13.6931 5.2991 13.41 5.24625 13.1249 5.25032C12.8369 5.24288 12.5503 5.29238 12.2816 5.39599C12.0128 5.4996 11.7671 5.65527 11.5586 5.85407C11.2774 6.12095 11.0712 6.45701 10.9606 6.82862C10.8501 7.20023 10.839 7.59436 10.9286 7.97157L11.1561 8.96907L10.1324 9.03907C9.08335 9.12462 8.02825 8.98112 7.04016 8.61851C6.05207 8.25591 5.1546 7.68287 4.4099 6.93907C4.37796 8.09092 4.6661 9.22906 5.24228 10.2269C5.81846 11.2248 6.66011 12.0434 7.67365 12.5916L8.5049 13.0641L7.95365 13.8516C7.3575 14.6334 6.54068 15.2186 5.60865 15.5316C6.20655 15.6814 6.82102 15.7549 7.4374 15.7503H7.44615Z" fill="#344FA1"/>
</svg>
