<svg width="18" height="21" viewBox="0 0 18 21" fill="none" xmlns="http://www.w3.org/2000/svg">
<path d="M9.03698 16.6685C9.09012 16.6892 9.12555 16.7306 9.14327 16.7927C9.16098 16.8548 9.15213 16.9169 9.1167 16.979L6.9112 19.5562C6.5569 19.9702 6.14946 20.3014 5.68888 20.5498C5.22829 20.7982 4.75885 20.9431 4.28055 20.9845C3.80225 21.0259 3.32395 20.9845 2.84565 20.8603C2.36735 20.7361 1.93333 20.4773 1.54361 20.084C1.06531 19.6493 0.693294 19.1214 0.427572 18.5004C0.161849 17.8794 0.0201305 17.2584 0.00241566 16.6374C-0.0152992 16.0164 0.0644176 15.385 0.241566 14.7433C0.418714 14.1016 0.719866 13.5427 1.14502 13.0666L4.57284 9.06109C5.122 8.41938 5.75974 7.94327 6.48604 7.63277C7.21235 7.32227 7.95637 7.23946 8.71811 7.38437C9.39128 7.50857 9.92272 7.73627 10.3124 8.06748C10.7022 8.39868 11.0122 8.78164 11.2425 9.21634C11.2779 9.31985 11.2735 9.39747 11.2292 9.44922C11.1849 9.50097 11.1362 9.54755 11.083 9.58895C11.0299 9.63035 10.9679 9.69245 10.897 9.77525L10.711 9.99261C10.5339 10.2203 10.3213 10.3342 10.0733 10.3342C9.82529 10.3342 9.59943 10.2151 9.3957 9.97708C9.19198 9.73903 8.96612 9.5579 8.71811 9.4337C8.47011 9.3095 8.19553 9.25775 7.89437 9.27845C7.59322 9.29915 7.3275 9.3509 7.09721 9.4337C6.86691 9.5165 6.62776 9.7028 6.37975 9.99261L2.44706 14.5881C2.21677 14.8572 2.04848 15.1677 1.94219 15.5196C1.8359 15.8715 1.80047 16.2234 1.8359 16.5753C1.87133 16.9272 1.9599 17.2791 2.10162 17.631C2.24334 17.9829 2.47363 18.2624 2.7925 18.4694C3.23537 18.8213 3.71367 18.9455 4.2274 18.842C4.74113 18.7385 5.17515 18.4901 5.52944 18.0968L7.23007 16.1406C7.2655 16.0785 7.31864 16.0681 7.3895 16.1095C7.92094 16.3787 8.47011 16.565 9.03698 16.6685ZM16.4241 0.956919C16.9024 1.39163 17.2744 1.90913 17.5401 2.50944C17.8058 3.10975 17.9564 3.73076 17.9918 4.37247C18.0273 5.01418 17.9475 5.65589 17.7527 6.2976C17.5578 6.93931 17.2478 7.49822 16.8226 7.97433L13.3948 11.9798C12.8457 12.6215 12.2079 13.0873 11.4816 13.3771C10.7553 13.6669 10.0024 13.7497 9.22299 13.6255C8.54982 13.522 8.02723 13.2943 7.65522 12.9424C7.28321 12.5905 6.9732 12.2075 6.72519 11.7935C6.68976 11.7107 6.69862 11.6383 6.75177 11.5762L7.23007 11.0173C7.42493 10.8103 7.64637 10.7068 7.89437 10.7068C8.14238 10.7068 8.35496 10.8103 8.53211 11.0173C8.74468 11.2657 8.98383 11.452 9.24956 11.5762C9.51528 11.7004 9.78986 11.7625 10.0733 11.7625C10.3567 11.7625 10.6313 11.7004 10.897 11.5762C11.1628 11.452 11.3931 11.2657 11.5879 11.0173L15.5206 6.45285C15.7509 6.18375 15.9192 5.86289 16.0255 5.49029C16.1318 5.11768 16.1672 4.75543 16.1318 4.40352C16.0963 4.05162 15.9989 3.71006 15.8395 3.37886C15.68 3.04765 15.4497 2.7682 15.1486 2.54049C14.7234 2.20929 14.254 2.08509 13.7403 2.16789C13.2265 2.25069 12.7837 2.50944 12.4117 2.94415L10.7376 4.90033C10.6845 4.96243 10.6313 4.97278 10.5782 4.93138C10.0822 4.68298 9.53299 4.48632 8.93069 4.34142C8.85983 4.34142 8.8244 4.30002 8.8244 4.21722C8.8244 4.13442 8.83326 4.08267 8.85097 4.06197L11.0565 1.48478C11.4108 1.07077 11.8182 0.739566 12.2788 0.491162C12.7394 0.242758 13.2 0.0875059 13.6605 0.0254049C14.1211 -0.036696 14.5994 0.0150548 15.0954 0.180657C15.5915 0.34626 16.0343 0.605014 16.4241 0.956919Z" fill="#344FA1"/>
</svg>
